<?xml version="1.0" encoding="UTF-8" standalone="no"?>
<!-- Generator: Adobe Illustrator 21.1.0, SVG Export Plug-In . SVG Version: 6.00 Build 0)  -->

<svg
   xmlns:dc="http://purl.org/dc/elements/1.1/"
   xmlns:cc="http://creativecommons.org/ns#"
   xmlns:rdf="http://www.w3.org/1999/02/22-rdf-syntax-ns#"
   xmlns:svg="http://www.w3.org/2000/svg"
   xmlns="http://www.w3.org/2000/svg"
   xmlns:sodipodi="http://sodipodi.sourceforge.net/DTD/sodipodi-0.dtd"
   xmlns:inkscape="http://www.inkscape.org/namespaces/inkscape"
   version="1.1"
   id="Calque_1"
   x="0px"
   y="0px"
   viewBox="0 0 432 432"
   style="enable-background:new 0 0 432 432;"
   xml:space="preserve"
   inkscape:version="0.48.4 r9939"
   width="100%"
   height="100%"
   sodipodi:docname="Arrows_5927.svg"><metadata
   id="metadata29"><rdf:RDF><cc:Work
       rdf:about=""><dc:format>image/svg+xml</dc:format><dc:type
         rdf:resource="http://purl.org/dc/dcmitype/StillImage" /><dc:title></dc:title></cc:Work></rdf:RDF></metadata><defs
   id="defs27">
	
	
	

		
		
	</defs><sodipodi:namedview
   pagecolor="#ffffff"
   bordercolor="#666666"
   borderopacity="1"
   objecttolerance="10"
   gridtolerance="10"
   guidetolerance="10"
   inkscape:pageopacity="0"
   inkscape:pageshadow="2"
   inkscape:window-width="1366"
   inkscape:window-height="705"
   id="namedview25"
   showgrid="false"
   inkscape:zoom="1.0840567"
   inkscape:cx="77.204099"
   inkscape:cy="208.93921"
   inkscape:window-x="-8"
   inkscape:window-y="-8"
   inkscape:window-maximized="1"
   inkscape:current-layer="Calque_1" />
<style
   type="text/css"
   id="style3">
	.st0{fill:#CCCCCC;}
	.st1{fill:#B3B3B3;}
	.st2{fill:#D06C5D;}
	.st3{fill:#961F21;}
	.st4{fill:#8AC640;}
	.st5{fill:#CCA1CC;}
	.st6{fill:#BCD601;}
	.st7{fill:#FFCB39;}
	.st8{fill:#FC8792;}
	.st9{fill:#F5CED3;}
	.st10{fill:#1A1A1A;}
	.st11{fill:#F9F1DA;}
	.st12{fill:#E6E6E6;}
	.st13{fill:#DDC2A8;}
	.st14{fill:#97B87F;}
	.st15{fill:#FAA821;}
	.st16{fill:#333333;}
	.st17{fill:#4EBEB8;}
	.st18{fill:#ABDFEC;}
	.st19{fill:#FAA74B;}
	.st20{fill:#8C6239;}
	.st21{fill:#F06386;}
	.st22{fill:#F8E7D6;}
	.st23{fill:#D3C7BE;}
	.st24{fill:#E2D2C3;}
	.st25{fill:#9294CD;}
	.st26{fill:#E66667;}
	.st27{fill:#FFD602;}
	.st28{fill:#B776BA;}
	.st29{fill:#C69C6D;}
	.st30{fill:#E49F90;}
	.st31{fill:#EAC0B4;}
	.st32{fill:#D3B1AF;}
	.st33{fill:#F2F2F2;}
	.st34{fill:#9CCCB2;}
	.st35{fill:#CDB48C;}
	.st36{fill:#73C977;}
	.st37{fill:none;}
	.st38{fill:#EFB156;}
	.st39{fill:#D7F5F3;}
	.st40{fill:#DA407B;}
	.st41{fill:#DA4147;}
	.st42{fill:#912D61;}
	.st43{fill:#BFB49D;}
	.st44{fill:#FFFFFF;}
	.st45{fill:#23B6DB;}
	.st46{fill:#D7DD50;}
	.st47{fill:#DA444C;}
	.st48{fill:#4D4D4D;}
	.st49{fill:#97857A;}
	.st50{fill:#84735F;}
	.st51{fill:#6E2521;}
	.st52{fill:#3F3C35;}
	.st53{fill:#A1B099;}
	.st54{fill:#D4CEB9;}
	.st55{fill:#854E4C;}
	.st56{fill:#B9986D;}
	.st57{fill:#BAAC91;}
	.st58{fill:#3F4650;}
	.st59{fill:#7B7B73;}
	.st60{fill:#5A5B60;}
	.st61{fill:#984831;}
	.st62{fill:#B1885C;}
	.st63{fill:#653F34;}
	.st64{fill:#DCC69D;}
	.st65{fill:#727D6D;}
	.st66{fill:#9B7455;}
	.st67{fill:#826D56;}
	.st68{fill:#C3A88B;}
	.st69{fill:#96967A;}
	.st70{fill:#9F6B56;}
</style>
<path
   class="st58"
   d="m 238.46074,225.67855 c 1.36858,-4.65317 2.46344,-8.7589 3.83202,-12.59092 4.92688,-13.13835 11.22234,-25.72927 18.06523,-37.77276 1.09486,-1.91601 3.01087,-3.83202 1.09486,-5.74803 -1.91601,-2.46344 -4.10573,-0.54743 -6.29546,0.27371 -0.82114,0.27372 -1.91601,0.82115 -3.5583,1.6423 0.82115,-1.91601 1.09486,-3.28459 1.64229,-4.37945 3.55831,-8.48519 7.11661,-16.69666 10.4012,-25.18185 1.09486,-3.01087 1.64229,-6.29546 1.91601,-9.30633 0.27371,-1.09486 -0.27372,-3.01087 -1.09486,-3.5583 -1.6423,-0.82115 -2.73716,0.82114 -3.55831,2.18972 -1.91601,2.73716 -3.5583,5.74803 -5.47431,8.48519 -0.82115,1.36858 -1.91601,2.46344 -3.5583,4.37945 0.27371,-1.91601 0.27371,-3.01087 0.54743,-3.83202 1.91601,-5.74803 3.83202,-11.49606 5.47431,-16.97037 0.54743,-1.91601 1.36858,-3.83202 1.36858,-5.74803 0.27371,-3.83202 -1.91601,-5.74803 -5.74803,-4.92688 -0.82115,0.27371 -1.64229,0.54743 -3.01087,1.09486 1.09486,-4.10574 2.18972,-7.66404 3.01087,-11.22234 1.91601,-9.03262 1.91601,-18.065237 0.82115,-27.097855 -1.09487,-9.580048 -3.01087,-18.886386 -5.74803,-27.919004 0,-0.273715 -0.27372,-0.547431 -0.27372,-0.821147 -1.64229,-4.37945 -2.46344,-4.926882 -7.66403,-3.558303 0.27371,-1.642294 0.27371,-3.284588 0.82114,-4.653167 0.82115,-3.284588 0.27372,-6.021745 -1.64229,-8.758901 -6.02175,-8.485186 -13.41207,-15.601794 -22.17097,-21.0761076 -5.2006,-3.2845881 -8.48519,-2.7371567 -12.59092,1.9160096 -1.6423,1.91601 -3.01087,3.83202 -4.37945,6.021745 -5.74803,10.12748 -9.58005,20.528676 -10.67491,32.024734 -0.54743,5.474313 0.54743,10.674911 3.01087,15.601793 2.73716,5.474319 5.2006,11.496064 7.93775,17.244093 0.27372,0.821147 0.27372,1.642294 0,2.737157 -1.91601,-3.010872 -3.83202,-5.748029 -6.02174,-8.485186 -1.36858,-1.91601 -3.01087,-3.558304 -4.92688,-4.926882 -3.01088,-2.189725 -5.47432,-1.368578 -6.29546,2.189725 -1.36858,5.474314 -2.73716,10.948627 -3.28459,16.696656 -1.36858,16.97037 -0.54743,34.21446 3.5583,50.91112 2.46344,10.40119 6.56918,20.25496 10.94863,29.835 0.54743,1.36858 1.09486,2.73716 1.09486,4.65317 -2.46344,-2.18973 -4.92688,-4.37945 -7.39032,-6.56918 -0.82115,-0.82114 -1.91601,-1.64229 -3.01087,-2.18972 -1.36858,-0.82115 -3.01088,0.27371 -2.73716,1.91601 0.27371,1.64229 0.54743,3.01087 1.09486,4.37945 2.73716,6.84289 5.74803,13.9595 8.7589,20.80239 0.27372,0.82115 0.54743,1.64229 0.54743,2.73716 -2.18972,-1.6423 -4.10573,-3.55831 -6.29546,-4.92689 -0.82114,-0.54743 -2.18972,-0.54743 -3.28458,-0.54743 0,1.09487 -0.27372,2.46344 0,3.28459 3.28458,6.02175 6.84289,12.04349 10.12748,18.06524 1.36857,2.18972 3.01087,4.37945 4.92688,7.1166 -1.6423,-0.54743 -2.46344,-0.82114 -3.28459,-1.09486 -1.36858,-0.54743 -2.46344,-1.09486 -3.83202,-1.36858 -2.18972,-0.54743 -4.65317,-1.64229 -6.29546,0.54743 -1.36858,2.18973 0,4.10574 1.36858,5.74803 6.02174,8.7589 12.3172,17.24409 18.61266,26.00299 1.6423,2.18973 1.91601,4.65317 1.6423,7.39032 -0.54743,4.92689 -0.54743,10.12747 -0.54743,15.05435 0,4.37945 1.91601,7.66404 6.84289,8.7589 -1.09486,54.19571 -0.40434,20.90737 -1.77292,75.6505 -1.36858,-0.54743 -2.46344,-1.09486 -3.5583,-1.36858 -3.83202,-1.36858 -7.39032,-2.73716 -11.22234,-3.83202 -1.09487,-0.27371 -3.28459,0.27372 -4.10574,1.09486 -0.54743,0.54744 0,2.46345 0.27372,3.83202 0.27371,0.82115 0.82114,1.6423 1.36857,2.46345 8.21147,12.04348 12.59092,25.45555 16.42294,39.41505 1.91601,7.11661 3.83202,14.23322 5.74803,21.34982 0.54743,1.91601 0.54743,4.65317 3.55831,4.92689 2.73715,0 3.5583,-2.18973 4.37945,-4.10574 2.18972,-5.74803 4.10573,-11.49606 5.74803,-17.5178 5.20059,-15.60179 10.94862,-30.92987 20.25496,-44.88937 2.18972,-3.55831 0.82114,-6.29546 -3.28459,-6.02175 -3.83202,0.27372 -7.39032,1.6423 -10.94863,3.01088 -2.18972,0.82114 -4.10573,1.91601 -6.56917,3.01087 0,-55.01685 -1.78539,-22.27594 -1.78539,-77.29279 5.2006,-1.6423 6.29546,-5.74803 6.29546,-10.67491 0,-4.37945 0,-9.03261 0,-13.41206 0,-2.18972 0.54743,-3.83202 1.64229,-5.47431 4.65317,-6.84289 9.85377,-13.41207 15.87551,-19.1601 0.54743,-0.54743 0.82115,-0.82114 1.36858,-1.36858 1.36858,-1.09486 2.18972,-2.73715 1.36858,-4.10573 -0.82115,-1.09486 -2.73716,-2.18973 -4.10574,-2.18973 -2.18972,0 -4.10573,0.54744 -6.29546,1.09487 -1.91601,-0.27372 -3.28458,0.27371 -5.47431,1.09486 z M 216.8372,31.340417 c 0.27372,0 0.54743,0 0.82115,0.273715 0.27371,4.653167 0.82115,9.580049 1.09486,14.233215 0.54743,10.401196 1.09486,20.802397 1.09486,31.203592 0.27372,22.718401 0.54744,45.436801 0,68.155201 -0.27371,18.06524 0.54744,36.13047 1.09487,54.46942 0.54743,14.78065 0.82114,29.56129 1.09486,44.34194 0,0.54743 -0.82115,1.09486 -1.91601,2.46344 -0.27372,-2.18972 -0.54743,-3.28459 -0.54743,-4.37945 -0.27372,-7.66404 -0.82115,-15.32808 -1.09486,-22.99212 -0.82115,-24.36069 -1.91601,-48.44767 -1.91601,-72.80837 -0.27372,-32.84588 0.27371,-65.691757 0.27371,-98.537643 0,-5.748029 0,-10.948627 0,-16.42294 z"
   id="path9"
   inkscape:connector-curvature="0"
   style="fill:#3f4650"
   sodipodi:nodetypes="cccccccccccccscccccccccccccccscccccccccccsscccccccccccccsccccsccccccccccccssccccscccccccccccccsc" />
</svg>